<svg width="1920" height="976" viewBox="0 0 1920 976" fill="none" xmlns="http://www.w3.org/2000/svg">
<rect width="1920" height="976" fill="#FFF4EC"/>
<rect x="447" y="510" width="1026" height="240" rx="120" fill="#DCDAFF"/>
<path d="M602.787 446.2L635.187 356.2H646.995L610.707 457H595.011L562.755 368.584L530.931 457H515.235L478.947 356.2H490.755L523.443 446.92L555.987 356.2H569.955L602.787 446.2ZM732.968 417.544V422.296H656.792C657.656 439.432 671.192 449.656 689.624 449.656H692.216C708.632 449.656 718.28 442.888 720.872 436.408H731.96C729.224 446.92 717.128 458.44 690.92 458.44C664.424 458.44 646.568 443.896 646.568 420.856C646.568 398.392 664.424 383.56 691.064 383.56C718.28 383.56 732.968 398.824 732.968 417.544ZM657.368 413.8H721.448C721.016 400.408 708.488 392.344 692.36 392.344H689.768C671.048 392.344 659.96 399.976 657.368 413.8ZM759.445 456.712H748.933V355.912H759.445V456.712ZM820.608 458.44C789.936 458.44 775.392 442.744 775.392 421C775.392 399.544 791.808 383.56 820.608 383.56C844.8 383.56 859.632 393.928 862.368 408.04H850.992C847.536 396.952 836.736 392.344 821.904 392.344H819.312C796.848 392.344 786.192 404.584 786.192 421C786.192 437.416 796.848 449.656 819.312 449.656H821.904C837.6 449.656 848.976 443.032 850.848 433.96H862.224C859.2 447.352 846.528 458.44 820.608 458.44ZM919.517 458.44C891.149 458.44 872.285 442.888 872.285 421C872.285 398.968 891.005 383.56 919.517 383.56C948.029 383.56 967.037 398.968 967.037 421C967.037 442.888 947.885 458.44 919.517 458.44ZM918.365 449.656H920.957C941.117 449.656 956.237 438.28 956.237 421C956.237 403.72 941.117 392.344 920.957 392.344H918.365C898.349 392.344 883.085 403.72 883.085 421C883.085 438.28 898.349 449.656 918.365 449.656ZM993.321 457H982.809V385H993.321V396.376C999.801 388.312 1010.31 383.56 1025.29 383.56C1040.41 383.56 1052.36 389.464 1057.83 401.704C1064.17 389.752 1076.84 383.56 1092.25 383.56C1120.62 383.56 1130.41 398.536 1130.41 417.688V457H1119.9V418.552C1119.9 402.856 1112.12 392.344 1092.68 392.344H1090.09C1072.38 392.344 1061.87 404.296 1061.87 423.592V457H1051.35V418.552C1051.35 402.856 1042.86 392.344 1023.99 392.344H1021.4C1003.11 392.344 993.321 404.296 993.321 423.592V457ZM1231.65 417.544V422.296H1155.48C1156.34 439.432 1169.88 449.656 1188.31 449.656H1190.9C1207.32 449.656 1216.96 442.888 1219.56 436.408H1230.64C1227.91 446.92 1215.81 458.44 1189.6 458.44C1163.11 458.44 1145.25 443.896 1145.25 420.856C1145.25 398.392 1163.11 383.56 1189.75 383.56C1216.96 383.56 1231.65 398.824 1231.65 417.544ZM1156.05 413.8H1220.13C1219.7 400.408 1207.17 392.344 1191.04 392.344H1188.45C1169.73 392.344 1158.64 399.976 1156.05 413.8ZM1341.08 457H1310.55C1299.03 457 1295 451.528 1295 441.448V393.496H1272.1V385H1295V361.672H1305.51V385H1336.76V393.496H1305.51V440.584C1305.51 446.344 1306.95 447.784 1312.71 447.784H1341.08V457ZM1392.89 458.44C1364.52 458.44 1345.66 442.888 1345.66 421C1345.66 398.968 1364.38 383.56 1392.89 383.56C1421.4 383.56 1440.41 398.968 1440.41 421C1440.41 442.888 1421.26 458.44 1392.89 458.44ZM1391.74 449.656H1394.33C1414.49 449.656 1429.61 438.28 1429.61 421C1429.61 403.72 1414.49 392.344 1394.33 392.344H1391.74C1371.72 392.344 1356.46 403.72 1356.46 421C1356.46 438.28 1371.72 449.656 1391.74 449.656Z" fill="#333333"/>
<path d="M572.571 681H552.123V580.2H654.507V598.056H572.571V623.112H645.147V640.968H572.571V681ZM683.023 681H663.583V580.2H683.023V681ZM744.239 682.44C715.871 682.44 694.127 666.888 694.127 645C694.127 622.968 715.871 607.56 744.239 607.56C772.607 607.56 794.639 622.968 794.639 645C794.639 666.888 772.607 682.44 744.239 682.44ZM743.087 666.744H745.679C763.823 666.744 774.911 657.96 774.911 645C774.911 632.04 763.823 623.256 745.679 623.256H743.087C725.087 623.256 713.855 632.04 713.855 645C713.855 657.96 725.087 666.744 743.087 666.744ZM899.799 709.8H880.359V670.2C875.031 676.104 863.943 682.44 846.087 682.44C820.455 682.44 801.015 667.32 801.015 645C801.015 621.096 819.735 607.56 845.799 607.56C860.919 607.56 872.871 612.024 880.359 619.944V609H899.799V709.8ZM848.247 666.744H850.839C868.695 666.744 880.359 657.96 880.359 645C880.359 632.04 868.695 623.256 850.839 623.256H848.247C831.687 623.256 820.743 632.04 820.743 645C820.743 657.96 831.687 666.744 848.247 666.744ZM980.414 681H917.63V580.2H980.414C1014.4 580.2 1038.16 598.92 1038.16 630.6C1038.16 662.712 1014.4 681 980.414 681ZM938.078 598.056V663.144H977.102C1002.88 663.144 1017.42 652.2 1017.42 630.6C1017.42 609 1002.88 598.056 977.102 598.056H938.078ZM1095.82 682.44C1067.45 682.44 1045.71 666.888 1045.71 645C1045.71 622.968 1067.45 607.56 1095.82 607.56C1124.19 607.56 1146.22 622.968 1146.22 645C1146.22 666.888 1124.19 682.44 1095.82 682.44ZM1094.67 666.744H1097.26C1115.4 666.744 1126.49 657.96 1126.49 645C1126.49 632.04 1115.4 623.256 1097.26 623.256H1094.67C1076.67 623.256 1065.43 632.04 1065.43 645C1065.43 657.96 1076.67 666.744 1094.67 666.744ZM1200.26 682.44C1169.3 682.44 1152.45 666.456 1152.45 645C1152.45 623.832 1170.31 607.56 1200.26 607.56C1226.47 607.56 1242.59 618.792 1244.9 634.2H1224.45C1221.86 627 1213.07 623.976 1201.7 623.976H1199.11C1180.96 623.976 1172.18 633.768 1172.18 645C1172.18 656.088 1180.96 666.024 1199.11 666.024H1201.7C1213.65 666.024 1222.87 661.704 1224.31 655.8H1244.75C1242.45 669.624 1229.35 682.44 1200.26 682.44ZM1292.52 682.44C1266.31 682.44 1250.61 672.792 1249.46 657.24H1269.48C1270.34 662.568 1279.84 666.744 1291.36 666.744H1293.96C1308.79 666.744 1312.68 664.296 1312.68 660.408C1312.68 657.528 1310.95 655.224 1301.01 654.216L1280.71 652.2C1259.83 650.184 1253.78 641.544 1253.78 630.744C1253.78 614.76 1269.33 607.56 1291.8 607.56C1319.3 607.56 1332.4 617.784 1333.84 632.76H1313.83C1312.39 627.144 1306.34 623.256 1293.24 623.256H1290.64C1278.98 623.256 1273.36 625.848 1273.36 629.448C1273.36 632.472 1274.8 634.632 1286.04 635.784L1303.6 637.512C1325.78 639.672 1332.4 648.6 1332.4 659.544C1332.4 673.656 1320.02 682.44 1292.52 682.44ZM1362.37 653.64H1352.29L1347.1 614.04V580.2H1367.55V614.04L1362.37 653.64ZM1368.99 681H1345.38V659.832H1368.99V681Z" fill="#1E0068"/>
<path d="M118.982 117.984L119.004 117.993L118.99 118.007L118.982 117.984ZM113.403 136.816L114.263 136.696C117.611 136.228 120.843 135.144 123.797 133.5L124.336 133.2L118.989 118.006C117.215 119.777 115.808 121.88 114.849 124.197C113.891 126.513 113.399 128.996 113.403 131.502V136.816ZM119.003 117.991L134.196 123.339L134.496 122.8C136.14 119.846 137.224 116.613 137.692 113.265L137.812 112.405L132.5 112.406C129.994 112.402 127.511 112.894 125.195 113.853C122.879 114.812 120.775 116.219 119.004 117.993L119.003 117.991ZM83 112.406L83.1215 113.265C83.588 116.614 84.6713 119.847 86.3161 122.801L86.6166 123.34L101.795 117.979C100.025 116.208 97.9222 114.806 95.6093 113.849C93.2964 112.893 90.8167 112.402 88.3143 112.406H83ZM96.4767 133.201L97.0156 133.501C99.9694 135.146 103.203 136.229 106.55 136.696L107.409 136.818V131.503C107.413 129 106.923 126.521 105.967 124.208C105.01 121.895 103.608 119.792 101.838 118.022L96.4767 133.201ZM101.795 117.979L101.838 118.022L101.863 117.957L101.795 117.979ZM132.498 106.412H137.812L137.692 105.552C137.224 102.204 136.14 98.9709 134.496 96.0171L134.196 95.4782L118.997 100.819C120.768 102.595 122.873 104.004 125.19 104.963C127.508 105.923 129.991 106.415 132.5 106.412L132.498 106.412ZM123.797 85.3169C120.843 83.6728 117.611 82.5888 114.263 82.1215L113.403 82.0008L113.404 87.3143C113.401 89.8227 113.893 92.307 114.852 94.6244C115.813 96.9426 117.221 99.0472 118.997 100.819L124.336 85.6173L123.797 85.3169ZM101.823 100.81L101.809 100.825L101.831 100.831L101.823 100.81ZM107.409 82L106.55 82.1215C103.203 82.588 99.9694 83.6713 97.0156 85.3161L96.4767 85.6166L101.823 100.81C103.597 99.0389 105.004 96.9343 105.962 94.6184C106.92 92.3024 107.412 89.8197 107.409 87.3128L107.409 82ZM101.809 100.825L86.6166 95.4774L86.3161 96.0164C84.6713 98.9702 83.588 102.203 83.1215 105.552L83 106.412H88.3143C90.8204 106.415 93.3024 105.923 95.6184 104.964C97.9343 104.004 100.038 102.598 101.809 100.825ZM101.832 100.83L101.838 100.857C103.314 106.469 103.321 112.367 101.859 117.983L101.884 117.975C107.496 116.499 113.393 116.492 119.009 117.955L119.002 117.931C117.526 112.319 117.519 106.421 118.982 100.805L118.957 100.81C113.346 102.287 107.449 102.294 101.833 100.831L101.832 100.83Z" fill="#A29EFE"/>
<path d="M101.914 100.773H119.044V118.041H101.914V100.773Z" fill="#FFF4EC"/>
<path d="M173.852 99.9706V104.249H162.248V128.797H157.649V104.249H151.82V99.9706H157.649V98.4201C157.649 89.8629 162.836 87.6172 168.665 87.6172C170.429 87.6172 172.408 87.8308 174.386 88.1516L173.852 92.3766C172.141 92.0022 170.644 91.895 169.36 91.895C164.922 91.895 162.248 93.2326 162.248 97.7785V99.9706H173.852ZM177.939 128.797V89.4885H182.537V128.797H177.939ZM191.63 114.41C191.63 120.775 195.961 125.161 202.378 125.161C208.742 125.161 213.127 120.775 213.127 114.41C213.127 107.993 208.742 103.608 202.378 103.608C195.961 103.608 191.63 107.993 191.63 114.41ZM187.031 114.41C187.031 105.426 193.234 99.329 202.378 99.329C211.469 99.329 217.726 105.426 217.726 114.41C217.726 123.342 211.469 129.439 202.378 129.439C193.234 129.439 187.031 123.342 187.031 114.41ZM225.965 114.464C225.965 121.31 229.708 125.161 235.59 125.161C241.793 125.161 246.392 120.828 246.392 114.41C246.392 107.94 241.793 103.608 235.644 103.608C229.761 103.608 225.965 107.565 225.965 114.464ZM221.366 114.41C221.366 104.998 226.607 99.329 234.628 99.329C240.082 99.329 244.36 102.003 246.285 107.191H246.392V99.9706H250.991V139.28H246.392V121.577H246.285C244.307 126.765 240.029 129.439 234.574 129.439C226.607 129.439 221.366 123.824 221.366 114.41ZM255.491 114.358C255.491 105.48 261.534 99.329 270.304 99.329C278.966 99.329 285.116 105.372 285.116 114.518V116.069H260.197C260.892 121.524 265.01 125.161 270.517 125.161C275.169 125.161 278.753 122.593 280.196 118.315L284.635 119.919C282.656 125.802 277.416 129.439 270.571 129.439C261.694 129.439 255.491 123.288 255.491 114.358ZM260.304 112.004H280.357C279.394 106.87 275.598 103.608 270.411 103.608C265.116 103.608 261.213 106.977 260.304 112.004ZM294.236 114.143V128.797H289.637V99.9706H294.236V107.993H294.343C295.894 102.378 298.621 99.9706 304.985 99.9706H307.445V104.891H304.504C297.552 104.891 294.236 108.153 294.236 114.143Z" fill="#1E0068"/>
</svg>
